<svg xmlns="http://www.w3.org/2000/svg" viewBox="0 0 1600 700" role="img" aria-label="Kerala backwater landscape"><defs><linearGradient id="sky" x2="0" y2="1"><stop stop-color="#246b63"/><stop offset="1" stop-color="#b6ddd1"/></linearGradient></defs><rect width="1600" height="700" fill="url(#sky)"/><path fill="#173f38" d="M0 390q80-250 160 0 80-310 160 0 70-250 155 0 80-330 160 0 90-240 170 0 90-300 180 0 80-230 160 0 75-280 170 0v130H0z"/><path fill="#4f9381" d="M0 500q350-90 700 0t900 0v200H0z"/><path fill="#d8f2e8" opacity=".75" d="M0 575q350-90 700 0t900 0v125H0z"/><text x="90" y="620" fill="white" font-family="system-ui, sans-serif" font-size="54" font-weight="700">Kerala backwaters</text></svg>
